# xmcd
#
# Track frame offsets:
# 150
# 19916
# 40975
# 57477
# 79948
# 118706
# 141683
# 163134
# 183068
# 196594
# 228840
# 257350
#
# Disc length: 3682 seconds
#
#
# Revision: 2
# Processed by: cddbd v1.5.2PL0 Copyright (c) Steve Scherf et al.
# Submitted via: HACP 1.20
#
DISCID=9f0e600c
DTITLE=B.B. King and Eric Clapton - Riding with the King
DYEAR=1900
DGENRE=
TTITLE0=Riding with the King
TTITLE1=Ten Long Years
TTITLE2=Key to the Highway
TTITLE3=Marry You
TTITLE4=Three O'Clock Blues
TTITLE5=Help the Poor
TTITLE6=I Wanna Be
TTITLE7=Worrred Life Blues
TTITLE8=Days of Old
TTITLE9=When My Heart Beats Like a Hammer
TTITLE10=Hold On! I'm Coming
TTITLE11=Come Rain or Come Shine
EXTD=
EXTT0=
EXTT1=
EXTT2=
EXTT3=
EXTT4=
EXTT5=
EXTT6=
EXTT7=
EXTT8=
EXTT9=
EXTT10=
EXTT11=
PLAYORDER=
